<?xml version="1.0" encoding="utf-8"?>
<!-- Generator: Adobe Illustrator 24.0.1, SVG Export Plug-In . SVG Version: 6.00 Build 0)  -->
<svg version="1.1" id="svg" xmlns="http://www.w3.org/2000/svg" xmlns:xlink="http://www.w3.org/1999/xlink" x="0px" y="0px"
	 viewBox="0 0 716 718" style="enable-background:new 0 0 716 718;" xml:space="preserve">
<style type="text/css">
	.st0{fill-rule:evenodd;clip-rule:evenodd;fill:#FFA319;}
</style>
<path class="st0" d="M374.5,357.5c102.6-44.8,207.6,81.3,332.5,0.5c-125.6,82.7-228.9-42.5-332.5,0.5V357.5z"/>
<path class="st0" d="M374.4,359.4c106.7-33.9,198,102.6,330.6,35.2c-133.6,69.2-223.2-66.2-330.7-34.3L374.4,359.4z"/>
<path class="st0" d="M374.2,361.2c109.7-22.5,186.2,122.7,325.1,69.6c-140.1,54.8-215.1-89.1-325.3-68.7L374.2,361.2z"/>
<path class="st0" d="M373.8,363C485.2,352,546.1,504.4,689.9,466.2C544.8,506,485.3,355,373.5,363.8L373.8,363z"/>
<path class="st0" d="M373.2,364.7c111.9,0.8,156.6,158.7,303.6,135.7c-148.4,24.5-191.8-131.9-303.9-134.8L373.2,364.7z"/>
<path class="st0" d="M372.4,366.4C483.6,378.8,511.5,540.6,660.1,533c-150.2,8.9-177-151.2-288.2-165.9L372.4,366.4z"/>
<path class="st0" d="M371.4,367.9c109.3,24,120.2,187.8,268.7,195.8c-150.3-6.9-160.2-168.9-269.3-195.1L371.4,367.9z"/>
<path class="st0" d="M370.3,369.4c106.2,35.3,99.9,199.3,246.8,222.8C468.4,569.6,475.4,407.5,369.7,370L370.3,369.4z"/>
<path class="st0" d="M369,370.7c102,46.2,78.5,208.7,222.1,247.4c-145.5-38-121.6-198.5-222.8-246.8L369,370.7z"/>
<path class="st0" d="M367.7,371.9c96.6,56.6,56.2,215.7,195.1,269.3C422,588.2,462.6,431,366.9,372.4L367.7,371.9z"/>
<path class="st0" d="M366.1,372.9c90.1,66.4,33.4,220.4,165.9,288.2c-134.5-67.4-77.7-219.5-166.6-287.7L366.1,372.9z"/>
<path class="st0" d="M364.5,373.8c82.7,75.5,10.2,222.7,134.8,303.9c-126.7-81.1-54.3-226.4-135.7-303.6L364.5,373.8z"/>
<path class="st0" d="M362.8,374.5c74.3,83.7-13.2,222.6,102.3,316.4C347.6,597,434.8,460,362,374.8L362.8,374.5z"/>
<path class="st0" d="M361.1,375c65.2,91-36.4,220,68.7,325.3c-107.1-105.7-6-232.7-69.6-325.1L361.1,375z"/>
<path class="st0" d="M359.3,375.4c55.3,97.3-59.2,215,34.3,330.7c-95.4-116.3,18.3-232.1-35.2-330.6L359.3,375.4z"/>
<path class="st0" d="M357.5,375.5c44.8,102.6-81.3,207.6-0.5,332.5c-82.7-125.6,42.5-228.9-0.5-332.5H357.5z"/>
<path class="st0" d="M355.6,375.4c33.9,106.7-102.6,198-35.2,330.6c-69.2-133.6,66.2-223.2,34.3-330.7L355.6,375.4z"/>
<path class="st0" d="M353.8,375.2c22.5,109.7-122.7,186.2-69.6,325.1c-54.8-140.1,89.1-215.1,68.7-325.3L353.8,375.2z"/>
<path class="st0" d="M352,374.8C363,486.2,210.6,547.1,248.8,690.9C209,545.8,360,486.3,351.2,374.5L352,374.8z"/>
<path class="st0" d="M350.3,374.2c-0.8,111.9-158.7,156.6-135.7,303.6c-24.5-148.4,131.9-191.8,134.8-303.9L350.3,374.2z"/>
<path class="st0" d="M348.6,373.4C336.2,484.6,174.4,512.5,182,661.1c-8.9-150.2,151.2-177,165.9-288.2L348.6,373.4z"/>
<path class="st0" d="M347.1,372.4c-24,109.3-187.8,120.2-195.8,268.7c6.9-150.3,168.9-160.2,195.1-269.3L347.1,372.4z"/>
<path class="st0" d="M345.6,371.3c-35.3,106.2-199.3,99.9-222.8,246.8C145.4,469.4,307.5,476.4,345,370.7L345.6,371.3z"/>
<path class="st0" d="M344.3,370c-46.2,102-208.7,78.5-247.4,222.1c38-145.5,198.5-121.6,246.8-222.8L344.3,370z"/>
<path class="st0" d="M343.1,368.7c-56.6,96.6-215.7,56.2-269.3,195.1C126.8,423,284,463.6,342.6,367.9L343.1,368.7z"/>
<path class="st0" d="M342.1,367.1C275.7,457.3,121.6,400.5,53.9,533c67.4-134.5,219.5-77.7,287.7-166.6L342.1,367.1z"/>
<path class="st0" d="M341.2,365.5c-75.5,82.7-222.7,10.2-303.9,134.8c81.1-126.7,226.4-54.3,303.6-135.7L341.2,365.5z"/>
<path class="st0" d="M340.5,363.8c-83.7,74.3-222.6-13.2-316.4,102.3C118,348.6,255,435.8,340.2,363L340.5,363.8z"/>
<path class="st0" d="M340,362.1c-91,65.2-220-36.4-325.3,68.7c105.7-107.1,232.7-6,325.1-69.6L340,362.1z"/>
<path class="st0" d="M339.6,360.3c-97.3,55.3-215-59.2-330.7,34.3c116.3-95.4,232.1,18.3,330.6-35.2L339.6,360.3z"/>
<path class="st0" d="M339.5,358.5C236.9,403.3,131.9,277.1,7,358c125.6-82.7,228.9,42.5,332.5-0.5V358.5z"/>
<path class="st0" d="M339.6,356.6c-106.7,33.9-198-102.6-330.6-35.2c133.6-69.2,223.2,66.2,330.7,34.3L339.6,356.6z"/>
<path class="st0" d="M339.8,354.8c-109.7,22.5-186.2-122.7-325.1-69.6c140.1-54.8,215.1,89.1,325.3,68.7L339.8,354.8z"/>
<path class="st0" d="M340.2,353C228.8,364,167.9,211.6,24.1,249.8C169.2,210,228.7,361,340.5,352.2L340.2,353z"/>
<path class="st0" d="M340.8,351.3c-111.9-0.8-156.6-158.7-303.6-135.7c148.4-24.5,191.8,131.9,303.9,134.8L340.8,351.3z"/>
<path class="st0" d="M341.6,349.6C230.4,337.2,202.5,175.4,53.9,183c150.2-8.9,177,151.2,288.2,165.9L341.6,349.6z"/>
<path class="st0" d="M342.6,348.1c-109.3-24-120.2-187.8-268.7-195.8c150.3,6.9,160.2,168.9,269.3,195.1L342.6,348.1z"/>
<path class="st0" d="M343.7,346.6c-106.2-35.3-99.9-199.3-246.8-222.8C245.6,146.4,238.6,308.5,344.3,346L343.7,346.6z"/>
<path class="st0" d="M345,345.3c-102-46.2-78.5-208.7-222.1-247.4c145.5,38,121.6,198.5,222.8,246.8L345,345.3z"/>
<path class="st0" d="M346.3,344.1c-96.6-56.6-56.2-215.7-195.1-269.3C292,127.8,251.4,285,347.1,343.6L346.3,344.1z"/>
<path class="st0" d="M347.9,343.1C257.7,276.7,314.5,122.6,182,54.9c134.5,67.4,77.7,219.5,166.6,287.7L347.9,343.1z"/>
<path class="st0" d="M349.5,342.2c-82.7-75.5-10.2-222.7-134.8-303.9c126.7,81.1,54.3,226.4,135.7,303.6L349.5,342.2z"/>
<path class="st0" d="M351.2,341.5c-74.3-83.7,13.2-222.6-102.3-316.4C366.4,119,279.2,256,352,341.2L351.2,341.5z"/>
<path class="st0" d="M352.9,341c-65.2-91,36.4-220-68.7-325.3c107.1,105.7,6,232.7,69.6,325.1L352.9,341z"/>
<path class="st0" d="M354.7,340.6c-55.3-97.3,59.2-215-34.3-330.7c95.4,116.3-18.3,232.1,35.2,330.6L354.7,340.6z"/>
<path class="st0" d="M356.5,340.5C311.7,237.9,437.9,132.9,357,8c82.7,125.6-42.5,228.9,0.5,332.5H356.5z"/>
<path class="st0" d="M358.4,340.6c-33.9-106.7,102.6-198,35.2-330.6c69.2,133.6-66.2,223.2-34.3,330.7L358.4,340.6z"/>
<path class="st0" d="M360.2,340.8c-22.5-109.7,122.7-186.2,69.6-325.1c54.8,140.1-89.1,215.1-68.7,325.3L360.2,340.8z"/>
<path class="st0" d="M362,341.2C351,229.8,503.4,168.9,465.2,25.1C505,170.2,354,229.7,362.8,341.5L362,341.2z"/>
<path class="st0" d="M363.7,341.8c0.8-111.9,158.7-156.6,135.7-303.6c24.5,148.4-131.9,191.8-134.8,303.9L363.7,341.8z"/>
<path class="st0" d="M365.4,342.6C377.8,231.4,539.6,203.5,532,54.9c8.9,150.2-151.2,177-165.9,288.2L365.4,342.6z"/>
<path class="st0" d="M366.9,343.6c24-109.3,187.8-120.2,195.8-268.7c-6.9,150.3-168.9,160.2-195.1,269.3L366.9,343.6z"/>
<path class="st0" d="M368.4,344.7c35.3-106.2,199.3-99.9,222.8-246.8C568.6,246.6,406.5,239.6,369,345.3L368.4,344.7z"/>
<path class="st0" d="M369.7,346c46.2-102,208.7-78.5,247.4-222.1c-38,145.5-198.5,121.6-246.8,222.8L369.7,346z"/>
<path class="st0" d="M370.9,347.3c56.6-96.6,215.7-56.2,269.3-195.1C587.2,293,430,252.4,371.4,348.1L370.9,347.3z"/>
<path class="st0" d="M371.9,348.9c66.4-90.1,220.4-33.4,288.2-165.9c-67.4,134.5-219.5,77.7-287.7,166.6L371.9,348.9z"/>
<path class="st0" d="M372.8,350.5c75.5-82.7,222.7-10.2,303.9-134.8c-81.1,126.7-226.4,54.3-303.6,135.7L372.8,350.5z"/>
<path class="st0" d="M373.5,352.2c83.7-74.3,222.6,13.2,316.4-102.3C596,367.4,459,280.2,373.8,353L373.5,352.2z"/>
<path class="st0" d="M374,353.9c91-65.2,220,36.4,325.3-68.7c-105.7,107.1-232.7,6-325.1,69.6L374,353.9z"/>
<path class="st0" d="M374.4,355.7c97.3-55.3,215,59.2,330.7-34.3c-116.3,95.4-232.1-18.3-330.6,35.2L374.4,355.7z"/>
</svg>
