<?xml version="1.0"?><!DOCTYPE svg PUBLIC "-//W3C//DTD SVG 1.1//EN" "http://www.w3.org/Graphics/SVG/1.1/DTD/svg11.dtd"><svg id="svg" xmlns="http://www.w3.org/2000/svg" xmlns:xlink="http://www.w3.org/1999/xlink" width="1280" height="610"><rect width="1280" height="610" style="fill:none;stroke-width:0;stroke:rgb(0,0,0)"/><path style="fill:#FFA319;fill-rule:evenodd;stroke:#FF30A5;stroke-width:0px;stroke-linecap:butt;stroke-linejoin:miter;opacity:1" d=" M 657.4940031870723,304.54190340461224 C 760.0750211994065,259.7072441950535 865.0865527032141,385.8500973198402 990,305 864.3957437182484,387.7480794071901 761.0964249871765,262.51352803809704 657.4940031870723,305.45809659538776  Z" /><path style="fill:#FFA319;fill-rule:evenodd;stroke:#FF30A5;stroke-width:0px;stroke-linecap:butt;stroke-linejoin:miter;opacity:1" d=" M 657.4460533403297,306.3730341752373 C 764.1516198310675,272.5066200932171 855.4023685884282,408.9351434835175 988.0826633788956,341.5849621436787 854.5169507764623,410.7505190247938 764.8740917244107,275.4042965880535 657.3502850740417,307.2842083638509  Z" /><path style="fill:#FFA319;fill-rule:evenodd;stroke:#FF30A5;stroke-width:0px;stroke-linecap:butt;stroke-linejoin:miter;opacity:1" d=" M 657.2069608823692,308.1891216961126 C 766.8679873354627,285.66200026131634 843.3581910475439,430.88145446536237 982.351660256832,377.76909178621577 842.2878652314115,432.5943338262431 767.2836117811286,288.6193218578904 657.0164736069594,309.08529386747836  Z" /><path style="fill:#FFA319;fill-rule:evenodd;stroke:#FF30A5;stroke-width:0px;stroke-linecap:butt;stroke-linejoin:miter;opacity:1" d=" M 656.7793453601934,309.97026853231864 C 768.1943626217773,299.02925160128916 829.0859786101054,451.4485818896968 972.8697807033037,413.15594803123156 827.842471503428,453.04019840546107 768.2985859513642,302.01381726532946 656.4962260941131,310.841620036591  Z" /><path style="fill:#FFA319;fill-rule:evenodd;stroke:#FF30A5;stroke-width:0px;stroke-linecap:butt;stroke-linejoin:miter;opacity:1" d=" M 656.1678918189475,311.69696006638907 C 768.1162136448127,312.4619197101777 812.7421006222296,470.4111880045117 959.7409101749104,447.35782507653005 811.3390363490887,471.8641035915457 767.9078939657115,315.4410299157085 655.7952424761226,312.5339441941452  Z" /><path style="fill:#FFA319;fill-rule:evenodd;stroke:#FF30A5;stroke-width:0px;stroke-linecap:butt;stroke-linejoin:miter;opacity:1" d=" M 655.3792994715844,313.35027830454317 C 766.6343966211143,325.81283346521445 794.5056240313282,487.5615145290328 943.1088913245535,480 792.9583748575104,488.8598107401228 766.115816327323,328.75384845740507 654.9212028761966,314.1437248825291  Z" /><path style="fill:#FFA319;fill-rule:evenodd;stroke:#FF30A5;stroke-width:0px;stroke-linecap:butt;stroke-linejoin:miter;opacity:1" d=" M 654.4222083008852,314.91210914618455 C 763.7651466480838,338.93571746144096 774.5763514911592,502.7116588969209 923.1559480312317,510.7248383023656 772.9018694023954,503.8411113270922 762.941987413821,341.8064148645899 653.8836834550966,315.6533250076526  Z" /><path style="fill:#FFA319;fill-rule:evenodd;stroke:#FF30A5;stroke-width:0px;stroke-linecap:butt;stroke-linejoin:miter;opacity:1" d=" M 653.3071043980005,316.36534084577823 C 759.5398998288549,351.68679463565445 753.172632282141,515.6956329561098 900.1006889170881,539.1957122256003 751.3892632546037,516.6438670881844 758.4211803589484,354.45572248828086 652.6940514927151,317.0462050746407  Z" /><path style="fill:#FFA319;fill-rule:evenodd;stroke:#FF30A5;stroke-width:0px;stroke-linecap:butt;stroke-linejoin:miter;opacity:1" d=" M 652.0462050746407,317.694051492715 C 754.0049488517689,363.9263615179998 730.5289700309438,526.3711815697358 874.1957122256003,565.1006889170881 728.6562530288926,527.1278083521319 752.602926070838,366.5631828671149 651.3653408457782,318.30710439800055  Z" /><path style="fill:#FFA319;fill-rule:evenodd;stroke:#FF30A5;stroke-width:0px;stroke-linecap:butt;stroke-linejoin:miter;opacity:1" d=" M 650.6533250076526,318.8836834550966 C 747.2209357979934,375.52031885242013 706.8934534396827,534.6213411931858 845.7248383023656,588.1559480312317 704.9519063424833,535.1780708645412 745.5509705610183,377.9961441315326 649.9121091461845,319.4222083008853  Z" /><path style="fill:#FFA319;fill-rule:evenodd;stroke:#FF30A5;stroke-width:0px;stroke-linecap:butt;stroke-linejoin:miter;opacity:1" d=" M 649.1437248825291,319.9212028761966 C 739.262187734192,386.3416408161678 682.5250381741814,540.3557213511684 815,608.1088913245535 680.5359329781255,540.7064542647005 737.3425765297715,388.6293443654201 648.3502783045432,320.3792994715844  Z" /><path style="fill:#FFA319;fill-rule:evenodd;stroke:#FF30A5;stroke-width:0px;stroke-linecap:butt;stroke-linejoin:miter;opacity:1" d=" M 647.5339441941452,320.79524247612255 C 730.2159023696265,396.2717667413009 657.6907096915072,543.5114949746767 782.35782507653,624.7409101749104 655.6758394493702,543.6523884271892 728.0676768598208,398.34628400187455 646.6969600663891,321.1678918189475  Z" /><path style="fill:#FFA319;fill-rule:evenodd;stroke:#FF30A5;stroke-width:0px;stroke-linecap:butt;stroke-linejoin:miter;opacity:1" d=" M 645.8416200365909,321.4962260941131 C 720.1811926998082,405.20190009017125 632.6625580914341,544.0540867475033 748.1559480312316,637.8697807033037 630.6439981432272,543.9835970808467 717.8278892928477,407.0405022168388 644.9702685323186,321.77934536019336  Z" /><path style="fill:#FFA319;fill-rule:evenodd;stroke:#FF30A5;stroke-width:0px;stroke-linecap:butt;stroke-linejoin:miter;opacity:1" d=" M 644.0852938674783,322.0164736069593 C 709.2680011037775,413.034200453058 607.7147970403696,541.9775519206406 712.7690917862158,647.351660256832 605.7146631512962,541.6964514343537 706.7354030842494,414.6167433361674 643.1891216961126,322.20696088236923  Z" /><path style="fill:#FFA319;fill-rule:evenodd;stroke:#FF30A5;stroke-width:0px;stroke-linecap:butt;stroke-linejoin:miter;opacity:1" d=" M 642.2842083638509,322.35028507404166 C 697.5958947923926,419.6828555081712 583.1207594290439,537.3046414441944 676.5849621436787,653.0826633788956 581.1609654845477,536.816009934029 694.911749834179,420.9920004767268 641.3730341752373,322.44605334032974  Z" /><path style="fill:#FFA319;fill-rule:evenodd;stroke:#FF30A5;stroke-width:0px;stroke-linecap:butt;stroke-linejoin:miter;opacity:1" d=" M 640.4580965953878,322.4940031870723 C 685.2927558049465,425.0750211994065 559.1499026801598,530.0865527032141 640,655 557.2519205928099,529.3957437182484 682.4864719619029,426.09642498717653 639.5419034046122,322.4940031870723  Z" /><path style="fill:#FFA319;fill-rule:evenodd;stroke:#FF30A5;stroke-width:0px;stroke-linecap:butt;stroke-linejoin:miter;opacity:1" d=" M 638.6269658247627,322.44605334032974 C 672.4933799067829,429.15161983106753 536.0648565164825,520.4023685884281 603.4150378563213,653.0826633788956 534.2494809752063,519.5169507764624 669.5957034119465,429.87409172441073 637.7157916361491,322.35028507404166  Z" /><path style="fill:#FFA319;fill-rule:evenodd;stroke:#FF30A5;stroke-width:0px;stroke-linecap:butt;stroke-linejoin:miter;opacity:1" d=" M 636.8108783038874,322.20696088236923 C 659.3379997386837,431.86798733546266 514.1185455346376,508.35819104754387 567.2309082137843,647.351660256832 512.405666173757,507.2878652314115 656.3806781421097,432.28361178112857 635.9147061325217,322.0164736069593  Z" /><path style="fill:#FFA319;fill-rule:evenodd;stroke:#FF30A5;stroke-width:0px;stroke-linecap:butt;stroke-linejoin:miter;opacity:1" d=" M 635.0297314676814,321.77934536019336 C 645.9707483987108,433.19436262177726 493.5514181103032,494.0859786101053 531.8440519687684,637.8697807033038 491.95980159453893,492.842471503428 642.9861827346705,433.2985859513642 634.1583799634091,321.4962260941131  Z" /><path style="fill:#FFA319;fill-rule:evenodd;stroke:#FF30A5;stroke-width:0px;stroke-linecap:butt;stroke-linejoin:miter;opacity:1" d=" M 633.3030399336109,321.1678918189475 C 632.5380802898222,433.1162136448127 474.5888119954883,477.7421006222297 497.64217492346995,624.7409101749104 473.1358964084543,476.3390363490887 629.5589700842916,432.9078939657116 632.4660558058548,320.79524247612255  Z" /><path style="fill:#FFA319;fill-rule:evenodd;stroke:#FF30A5;stroke-width:0px;stroke-linecap:butt;stroke-linejoin:miter;opacity:1" d=" M 631.6497216954568,320.3792994715844 C 619.1871665347855,431.6343966211143 457.4384854709672,459.5056240313283 465.0000000000001,608.1088913245535 456.1401892598773,457.9583748575104 616.2461515425949,431.11581632732305 630.8562751174709,319.9212028761966  Z" /><path style="fill:#FFA319;fill-rule:evenodd;stroke:#FF30A5;stroke-width:0px;stroke-linecap:butt;stroke-linejoin:miter;opacity:1" d=" M 630.0878908538155,319.4222083008853 C 606.064282538559,428.7651466480838 442.2883411030792,439.57635149115936 434.2751616976344,588.1559480312317 441.1588886729078,437.90186940239545 603.1935851354101,427.94198741382104 629.3466749923474,318.8836834550966  Z" /><path style="fill:#FFA319;fill-rule:evenodd;stroke:#FF30A5;stroke-width:0px;stroke-linecap:butt;stroke-linejoin:miter;opacity:1" d=" M 628.6346591542218,318.30710439800055 C 593.3132053643455,424.5398998288549 429.30436704389024,418.17263228214097 405.80428777439965,565.1006889170881 428.3561329118156,416.3892632546037 590.5442775117192,423.42118035894845 627.9537949253593,317.69405149271506  Z" /><path style="fill:#FFA319;fill-rule:evenodd;stroke:#FF30A5;stroke-width:0px;stroke-linecap:butt;stroke-linejoin:miter;opacity:1" d=" M 627.3059485072849,317.0462050746407 C 581.0736384820002,419.0049488517688 418.62881843026423,395.5289700309438 379.89931108291205,539.1957122256005 417.87219164786814,393.6562530288926 578.4368171328852,417.602926070838 626.6928956019995,316.36534084577823  Z" /><path style="fill:#FFA319;fill-rule:evenodd;stroke:#FF30A5;stroke-width:0px;stroke-linecap:butt;stroke-linejoin:miter;opacity:1" d=" M 626.1163165449034,315.6533250076526 C 569.4796811475799,412.2209357979935 410.3786588068142,371.8934534396827 356.84405196876844,510.72483830236564 409.82192913545884,369.9519063424833 567.0038558684674,410.55097056101835 625.5777916991148,314.9121091461846  Z" /><path style="fill:#FFA319;fill-rule:evenodd;stroke:#FF30A5;stroke-width:0px;stroke-linecap:butt;stroke-linejoin:miter;opacity:1" d=" M 625.0787971238034,314.1437248825291 C 558.6583591838322,404.262187734192 404.6442786488316,347.5250381741814 336.89110867544645,480 404.2935457352995,345.53593297812563 556.37065563458,402.3425765297715 624.6207005284156,313.35027830454317  Z" /><path style="fill:#FFA319;fill-rule:evenodd;stroke:#FF30A5;stroke-width:0px;stroke-linecap:butt;stroke-linejoin:miter;opacity:1" d=" M 624.2047575238774,312.5339441941452 C 548.7282332586991,395.2159023696266 401.48850502532326,322.6907096915073 320.25908982508975,447.35782507653016 401.34761157281076,320.6758394493701 546.6537159981254,393.0676768598208 623.8321081810525,311.69696006638907  Z" /><path style="fill:#FFA319;fill-rule:evenodd;stroke:#FF30A5;stroke-width:0px;stroke-linecap:butt;stroke-linejoin:miter;opacity:1" d=" M 623.5037739058869,310.841620036591 C 539.7980999098288,385.1811926998082 400.94591325249667,297.6625580914341 307.1302192966963,413.1559480312316 401.0164029191533,295.64399814322707 537.9594977831613,382.8278892928478 623.2206546398066,309.97026853231864  Z" /><path style="fill:#FFA319;fill-rule:evenodd;stroke:#FF30A5;stroke-width:0px;stroke-linecap:butt;stroke-linejoin:miter;opacity:1" d=" M 622.9835263930406,309.08529386747836 C 531.965799546942,374.26800110377746 403.0224480793594,272.71479704036966 297.648339743168,377.76909178621577 403.30354856564634,270.7146631512962 530.3832566638325,371.73540308424936 622.7930391176308,308.1891216961126  Z" /><path style="fill:#FFA319;fill-rule:evenodd;stroke:#FF30A5;stroke-width:0px;stroke-linecap:butt;stroke-linejoin:miter;opacity:1" d=" M 622.6497149259583,307.2842083638509 C 525.3171444918288,362.5958947923926 407.69535855580557,248.1207594290439 291.91733662110437,341.5849621436788 408.183990065971,246.16096548454755 524.0079995232733,359.91174983417903 622.5539466596703,306.3730341752373  Z" /><path style="fill:#FFA319;fill-rule:evenodd;stroke:#FF30A5;stroke-width:0px;stroke-linecap:butt;stroke-linejoin:miter;opacity:1" d=" M 622.5059968129277,305.45809659538776 C 519.9249788005935,350.2927558049465 414.91344729678576,224.14990268015993 290,305.00000000000006 415.60425628175165,222.25192059280988 518.9035750128235,347.48647196190296 622.5059968129277,304.54190340461224  Z" /><path style="fill:#FFA319;fill-rule:evenodd;stroke:#FF30A5;stroke-width:0px;stroke-linecap:butt;stroke-linejoin:miter;opacity:1" d=" M 622.5539466596703,303.6269658247627 C 515.8483801689325,337.49337990678293 424.5976314115718,201.06485651648256 291.9173366211043,268.4150378563214 425.4830492235377,199.24948097520618 515.1259082755893,334.5957034119465 622.6497149259583,302.7157916361491  Z" /><path style="fill:#FFA319;fill-rule:evenodd;stroke:#FF30A5;stroke-width:0px;stroke-linecap:butt;stroke-linejoin:miter;opacity:1" d=" M 622.7930391176308,301.8108783038874 C 513.1320126645373,324.3379997386836 436.6418089524561,179.1185455346378 297.648339743168,232.23090821378435 437.7121347685885,177.40566617375697 512.7163882188714,321.3806781421097 622.9835263930406,300.91470613252164  Z" /><path style="fill:#FFA319;fill-rule:evenodd;stroke:#FF30A5;stroke-width:0px;stroke-linecap:butt;stroke-linejoin:miter;opacity:1" d=" M 623.2206546398066,300.02973146768136 C 511.80563737822274,310.9707483987108 450.91402138989463,158.55141811030322 307.1302192966963,196.8440519687683 452.157528496572,156.95980159453896 511.7014140486358,307.9861827346706 623.5037739058869,299.158379963409  Z" /><path style="fill:#FFA319;fill-rule:evenodd;stroke:#FF30A5;stroke-width:0px;stroke-linecap:butt;stroke-linejoin:miter;opacity:1" d=" M 623.8321081810525,298.30303993361093 C 511.8837863551873,297.53808028982223 467.2578993777704,139.58881199548824 320.25908982508963,162.64217492347007 468.6609636509112,138.13589640845439 512.0921060342883,294.5589700842916 624.2047575238774,297.4660558058548  Z" /><path style="fill:#FFA319;fill-rule:evenodd;stroke:#FF30A5;stroke-width:0px;stroke-linecap:butt;stroke-linejoin:miter;opacity:1" d=" M 624.6207005284156,296.64972169545683 C 513.3656033788857,284.1871665347855 485.49437596867165,122.43848547096727 336.8911086754465,129.99999999999997 487.04162514248964,121.14018925987719 513.884183672677,281.24615154259504 625.0787971238034,295.8562751174709  Z" /><path style="fill:#FFA319;fill-rule:evenodd;stroke:#FF30A5;stroke-width:0px;stroke-linecap:butt;stroke-linejoin:miter;opacity:1" d=" M 625.5777916991148,295.08789085381545 C 516.2348533519162,271.06428253855904 505.42364850884076,107.28834110307912 356.8440519687684,99.27516169763445 507.09813059760455,106.15888867290784 517.058012586179,268.1935851354101 626.1163165449034,294.3466749923474  Z" /><path style="fill:#FFA319;fill-rule:evenodd;stroke:#FF30A5;stroke-width:0px;stroke-linecap:butt;stroke-linejoin:miter;opacity:1" d=" M 626.6928956019995,293.63465915422177 C 520.4601001711451,258.31320536434555 526.8273677178589,94.30436704389027 379.899311082912,70.80428777439963 528.6107367453963,93.3561329118157 521.5788196410516,255.54427751171914 627.3059485072849,292.9537949253593  Z" /><path style="fill:#FFA319;fill-rule:evenodd;stroke:#FF30A5;stroke-width:0px;stroke-linecap:butt;stroke-linejoin:miter;opacity:1" d=" M 627.9537949253593,292.30594850728494 C 525.9950511482311,246.0736384820002 549.4710299690562,83.62881843026423 405.80428777439954,44.89931108291211 551.3437469711074,82.87219164786816 527.397073929162,243.4368171328851 628.6346591542218,291.69289560199945  Z" /><path style="fill:#FFA319;fill-rule:evenodd;stroke:#FF30A5;stroke-width:0px;stroke-linecap:butt;stroke-linejoin:miter;opacity:1" d=" M 629.3466749923474,291.1163165449034 C 532.7790642020065,234.47968114757992 573.1065465603173,75.3786588068142 434.27516169763436,21.84405196876844 575.0480936575167,74.82192913545887 534.4490294389817,232.0038558684674 630.0878908538155,290.5777916991147  Z" /><path style="fill:#FFA319;fill-rule:evenodd;stroke:#FF30A5;stroke-width:0px;stroke-linecap:butt;stroke-linejoin:miter;opacity:1" d=" M 630.8562751174709,290.0787971238034 C 540.737812265808,223.6583591838322 597.4749618258186,69.64427864883154 464.9999999999999,1.8911086754465032 599.4640670218746,69.29354573529946 542.6574234702284,221.37065563457995 631.6497216954568,289.6207005284156  Z" /><path style="fill:#FFA319;fill-rule:evenodd;stroke:#FF30A5;stroke-width:0px;stroke-linecap:butt;stroke-linejoin:miter;opacity:1" d=" M 632.4660558058548,289.20475752387745 C 549.7840976303734,213.7282332586991 622.3092903084926,66.48850502532329 497.64217492346995,-14.740910174910368 624.3241605506297,66.34761157281076 551.9323231401792,211.65371599812545 633.303039933611,288.8321081810525  Z" /><path style="fill:#FFA319;fill-rule:evenodd;stroke:#FF30A5;stroke-width:0px;stroke-linecap:butt;stroke-linejoin:miter;opacity:1" d=" M 634.158379963409,288.5037739058869 C 559.8188073001918,204.79809990982872 647.3374419085659,65.94591325249664 531.8440519687683,-27.869780703303718 649.3560018567729,66.01640291915325 562.1721107071523,202.95949778316123 635.0297314676814,288.22065463980664  Z" /><path style="fill:#FFA319;fill-rule:evenodd;stroke:#FF30A5;stroke-width:0px;stroke-linecap:butt;stroke-linejoin:miter;opacity:1" d=" M 635.9147061325217,287.9835263930407 C 570.7319988962224,196.96579954694204 672.2852029596303,68.0224480793594 567.2309082137841,-37.35166025683196 674.285336848704,68.30354856564634 573.2645969157506,195.38325666383258 636.8108783038874,287.79303911763077  Z" /><path style="fill:#FFA319;fill-rule:evenodd;stroke:#FF30A5;stroke-width:0px;stroke-linecap:butt;stroke-linejoin:miter;opacity:1" d=" M 637.7157916361491,287.64971492595834 C 582.4041052076074,190.3171444918288 696.879240570956,72.69535855580554 603.4150378563213,-43.08266337889569 698.8390345154525,73.18399006597099 585.0882501658211,189.0079995232732 638.6269658247627,287.55394665967026  Z" /><path style="fill:#FFA319;fill-rule:evenodd;stroke:#FF30A5;stroke-width:0px;stroke-linecap:butt;stroke-linejoin:miter;opacity:1" d=" M 639.5419034046122,287.5059968129277 C 594.7072441950535,184.92497880059352 720.8500973198402,79.91344729678582 639.9999999999999,-45 722.7480794071901,80.60425628175165 597.5135280380971,183.90357501282347 640.4580965953878,287.5059968129277  Z" /><path style="fill:#FFA319;fill-rule:evenodd;stroke:#FF30A5;stroke-width:0px;stroke-linecap:butt;stroke-linejoin:miter;opacity:1" d=" M 641.3730341752373,287.55394665967026 C 607.5066200932171,180.84838016893252 743.9351434835174,89.5976314115718 676.5849621436786,-43.08266337889569 745.7505190247937,90.48304922353762 610.4042965880535,180.1259082755893 642.2842083638509,287.64971492595834  Z" /><path style="fill:#FFA319;fill-rule:evenodd;stroke:#FF30A5;stroke-width:0px;stroke-linecap:butt;stroke-linejoin:miter;opacity:1" d=" M 643.1891216961126,287.79303911763077 C 620.6620002613163,178.13201266453737 765.8814544653624,101.64180895245616 712.7690917862155,-37.35166025683202 767.5943338262431,102.71213476858856 623.6193218578903,177.71638821887143 644.0852938674783,287.9835263930407  Z" /><path style="fill:#FFA319;fill-rule:evenodd;stroke:#FF30A5;stroke-width:0px;stroke-linecap:butt;stroke-linejoin:miter;opacity:1" d=" M 644.9702685323186,288.22065463980664 C 634.0292516012892,176.8056373782227 786.4485818896966,115.91402138989451 748.1559480312316,-27.869780703303775 788.0401984054611,117.15752849657198 637.0138172653294,176.70141404863577 645.8416200365909,288.5037739058869  Z" /><path style="fill:#FFA319;fill-rule:evenodd;stroke:#FF30A5;stroke-width:0px;stroke-linecap:butt;stroke-linejoin:miter;opacity:1" d=" M 646.6969600663891,288.8321081810525 C 647.4619197101778,176.88378635518728 805.4111880045117,132.2578993777703 782.3578250765302,-14.740910174910255 806.8641035915457,133.66096365091133 650.4410299157086,177.0921060342884 647.5339441941452,289.20475752387745  Z" /><path style="fill:#FFA319;fill-rule:evenodd;stroke:#FF30A5;stroke-width:0px;stroke-linecap:butt;stroke-linejoin:miter;opacity:1" d=" M 648.3502783045432,289.6207005284156 C 660.8128334652143,178.36560337888568 822.5615145290328,150.49437596867173 815,1.8911086754465032 823.8598107401226,152.0416251424895 663.7538484574051,178.88418367267698 649.1437248825291,290.0787971238034  Z" /><path style="fill:#FFA319;fill-rule:evenodd;stroke:#FF30A5;stroke-width:0px;stroke-linecap:butt;stroke-linejoin:miter;opacity:1" d=" M 649.9121091461845,290.5777916991147 C 673.9357174614408,181.23485335191617 837.7116588969209,170.42364850884073 845.7248383023655,21.844051968768326 838.8411113270922,172.0981305976047 676.8064148645899,182.05801258617896 650.6533250076526,291.1163165449034  Z" /><path style="fill:#FFA319;fill-rule:evenodd;stroke:#FF30A5;stroke-width:0px;stroke-linecap:butt;stroke-linejoin:miter;opacity:1" d=" M 651.3653408457782,291.69289560199945 C 686.6867946356543,185.46010017114503 850.6956329561098,191.8273677178589 874.1957122256002,44.89931108291188 851.6438670881844,193.6107367453964 689.4557224882808,186.57881964105158 652.0462050746407,292.30594850728494  Z" /><path style="fill:#FFA319;fill-rule:evenodd;stroke:#FF30A5;stroke-width:0px;stroke-linecap:butt;stroke-linejoin:miter;opacity:1" d=" M 652.6940514927151,292.9537949253593 C 698.9263615179998,190.99505114823114 861.3711815697358,214.47102996905622 900.1006889170881,70.80428777439965 862.1278083521319,216.3437469711074 701.563182867115,192.39707392916205 653.3071043980005,293.63465915422177  Z" /><path style="fill:#FFA319;fill-rule:evenodd;stroke:#FF30A5;stroke-width:0px;stroke-linecap:butt;stroke-linejoin:miter;opacity:1" d=" M 653.8836834550966,294.3466749923474 C 710.52031885242,197.77906420200645 869.6213411931858,238.10654656031727 923.1559480312316,99.27516169763433 870.1780708645412,240.04809365751663 712.9961441315327,199.4490294389817 654.4222083008852,295.08789085381545  Z" /><path style="fill:#FFA319;fill-rule:evenodd;stroke:#FF30A5;stroke-width:0px;stroke-linecap:butt;stroke-linejoin:miter;opacity:1" d=" M 654.9212028761966,295.8562751174709 C 721.3416408161677,205.73781226580792 875.3557213511684,262.4749618258186 943.1088913245535,129.99999999999986 875.7064542647006,264.46406702187454 723.62934436542,207.65742347022848 655.3792994715844,296.64972169545683  Z" /><path style="fill:#FFA319;fill-rule:evenodd;stroke:#FF30A5;stroke-width:0px;stroke-linecap:butt;stroke-linejoin:miter;opacity:1" d=" M 655.7952424761226,297.4660558058548 C 731.2717667413009,214.78409763037342 878.5114949746767,287.30929030849256 959.7409101749104,162.64217492346995 878.6523884271892,289.32416055062987 733.3462840018747,216.93232314017922 656.1678918189475,298.30303993361093  Z" /><path style="fill:#FFA319;fill-rule:evenodd;stroke:#FF30A5;stroke-width:0px;stroke-linecap:butt;stroke-linejoin:miter;opacity:1" d=" M 656.4962260941131,299.158379963409 C 740.2019000901712,224.81880730019174 879.0540867475033,312.3374419085659 972.8697807033037,196.84405196876833 878.9835970808467,314.3560018567728 742.0405022168388,227.17211070715229 656.7793453601934,300.02973146768136  Z" /><path style="fill:#FFA319;fill-rule:evenodd;stroke:#FF30A5;stroke-width:0px;stroke-linecap:butt;stroke-linejoin:miter;opacity:1" d=" M 657.0164736069594,300.91470613252164 C 748.034200453058,235.73199889622242 876.9775519206406,337.28520295963034 982.351660256832,232.23090821378406 876.6964514343537,339.2853368487037 749.6167433361675,238.26459691575064 657.2069608823692,301.8108783038874  Z" /><path style="fill:#FFA319;fill-rule:evenodd;stroke:#FF30A5;stroke-width:0px;stroke-linecap:butt;stroke-linejoin:miter;opacity:1" d=" M 657.3502850740417,302.7157916361491 C 754.6828555081712,247.40410520760733 872.3046414441944,361.879240570956 988.0826633788956,268.4150378563213 871.816009934029,363.8390345154524 755.9920004767268,250.08825016582108 657.4460533403297,303.6269658247627  Z" /></svg>